# Blender v2.80 (sub 74) OBJ File: 'animationassets$.blend'
# www.blender.org
mtllib mergefinal.mtl
o Cone
v 0.000000 0.740531 -1.000000
v 0.195090 0.740531 -0.980785
v 0.382683 0.740531 -0.923880
v 0.555570 0.740531 -0.831470
v 0.707107 0.740531 -0.707107
v 0.831470 0.740531 -0.555570
v 0.923880 0.740531 -0.382683
v 0.980785 0.740531 -0.195090
v 1.000000 0.740531 -0.000000
v 0.980785 0.740531 0.195090
v 0.923880 0.740531 0.382683
v 0.831470 0.740531 0.555570
v 0.707107 0.740531 0.707107
v 0.555570 0.740531 0.831470
v 0.382683 0.740531 0.923880
v 0.195090 0.740531 0.980785
v -0.000000 0.740531 1.000000
v -0.195091 0.740531 0.980785
v -0.382684 0.740531 0.923879
v -0.555571 0.740531 0.831469
v -0.707107 0.740531 0.707106
v -0.831470 0.740531 0.555570
v -0.923880 0.740531 0.382683
v 0.000000 2.740531 0.000000
v -0.980785 0.740531 0.195089
v -1.000000 0.740531 -0.000001
v -0.980785 0.740531 -0.195091
v -0.923879 0.740531 -0.382684
v -0.831469 0.740531 -0.555571
v -0.707106 0.740531 -0.707108
v -0.555569 0.740531 -0.831470
v -0.382682 0.740531 -0.923880
v -0.195089 0.740531 -0.980786
vt 0.250000 0.490000
vt 0.250000 0.250000
vt 0.296822 0.485388
vt 0.341844 0.471731
vt 0.383337 0.449553
vt 0.419706 0.419706
vt 0.449553 0.383337
vt 0.471731 0.341844
vt 0.485388 0.296822
vt 0.490000 0.250000
vt 0.485388 0.203178
vt 0.471731 0.158156
vt 0.449553 0.116663
vt 0.419706 0.080294
vt 0.383337 0.050447
vt 0.341844 0.028269
vt 0.296822 0.014612
vt 0.250000 0.010000
vt 0.203178 0.014612
vt 0.158156 0.028269
vt 0.116663 0.050447
vt 0.080294 0.080294
vt 0.050447 0.116663
vt 0.028269 0.158156
vt 0.014611 0.203179
vt 0.010000 0.250000
vt 0.014612 0.296822
vt 0.028269 0.341844
vt 0.050447 0.383337
vt 0.080295 0.419706
vt 0.116663 0.449553
vt 0.158156 0.471731
vt 0.203179 0.485389
vt 0.750000 0.490000
vt 0.796822 0.485388
vt 0.841844 0.471731
vt 0.883337 0.449553
vt 0.919706 0.419706
vt 0.949553 0.383337
vt 0.971731 0.341844
vt 0.985388 0.296822
vt 0.990000 0.250000
vt 0.985388 0.203178
vt 0.971731 0.158156
vt 0.949553 0.116663
vt 0.919706 0.080294
vt 0.883337 0.050447
vt 0.841844 0.028269
vt 0.796822 0.014612
vt 0.750000 0.010000
vt 0.703178 0.014612
vt 0.658156 0.028269
vt 0.616663 0.050447
vt 0.580294 0.080294
vt 0.550447 0.116663
vt 0.528269 0.158156
vt 0.514611 0.203179
vt 0.510000 0.250000
vt 0.514612 0.296822
vt 0.528269 0.341844
vt 0.550447 0.383337
vt 0.580295 0.419706
vt 0.616663 0.449553
vt 0.658156 0.471731
vt 0.703179 0.485389
vn 0.0878 0.4455 -0.8910
vn 0.2599 0.4455 -0.8567
vn 0.4220 0.4455 -0.7896
vn 0.5680 0.4455 -0.6921
vn 0.6921 0.4455 -0.5680
vn 0.7896 0.4455 -0.4220
vn 0.8567 0.4455 -0.2599
vn 0.8910 0.4455 -0.0878
vn 0.8910 0.4455 0.0878
vn 0.8567 0.4455 0.2599
vn 0.7896 0.4455 0.4220
vn 0.6921 0.4455 0.5680
vn 0.5680 0.4455 0.6921
vn 0.4220 0.4455 0.7896
vn 0.2599 0.4455 0.8567
vn 0.0878 0.4455 0.8910
vn -0.0878 0.4455 0.8910
vn -0.2599 0.4455 0.8567
vn -0.4220 0.4455 0.7896
vn -0.5680 0.4455 0.6921
vn -0.6921 0.4455 0.5680
vn -0.7896 0.4455 0.4220
vn -0.8567 0.4455 0.2599
vn -0.8910 0.4455 0.0878
vn -0.8910 0.4455 -0.0878
vn -0.8567 0.4455 -0.2599
vn -0.7896 0.4455 -0.4220
vn -0.6921 0.4455 -0.5680
vn -0.5680 0.4455 -0.6921
vn -0.4220 0.4455 -0.7896
vn -0.2599 0.4455 -0.8567
vn -0.0878 0.4455 -0.8910
vn 0.0000 -1.0000 0.0000
usemtl (null)
s off
f 1/1/1 24/2/1 2/3/1
f 2/3/2 24/2/2 3/4/2
f 3/4/3 24/2/3 4/5/3
f 4/5/4 24/2/4 5/6/4
f 5/6/5 24/2/5 6/7/5
f 6/7/6 24/2/6 7/8/6
f 7/8/7 24/2/7 8/9/7
f 8/9/8 24/2/8 9/10/8
f 9/10/9 24/2/9 10/11/9
f 10/11/10 24/2/10 11/12/10
f 11/12/11 24/2/11 12/13/11
f 12/13/12 24/2/12 13/14/12
f 13/14/13 24/2/13 14/15/13
f 14/15/14 24/2/14 15/16/14
f 15/16/15 24/2/15 16/17/15
f 16/17/16 24/2/16 17/18/16
f 17/18/17 24/2/17 18/19/17
f 18/19/18 24/2/18 19/20/18
f 19/20/19 24/2/19 20/21/19
f 20/21/20 24/2/20 21/22/20
f 21/22/21 24/2/21 22/23/21
f 22/23/22 24/2/22 23/24/22
f 23/24/23 24/2/23 25/25/23
f 25/25/24 24/2/24 26/26/24
f 26/26/25 24/2/25 27/27/25
f 27/27/26 24/2/26 28/28/26
f 28/28/27 24/2/27 29/29/27
f 29/29/28 24/2/28 30/30/28
f 30/30/29 24/2/29 31/31/29
f 31/31/30 24/2/30 32/32/30
f 32/32/31 24/2/31 33/33/31
f 33/33/32 24/2/32 1/1/32
f 1/34/33 2/35/33 3/36/33 4/37/33 5/38/33 6/39/33 7/40/33 8/41/33 9/42/33 10/43/33 11/44/33 12/45/33 13/46/33 14/47/33 15/48/33 16/49/33 17/50/33 18/51/33 19/52/33 20/53/33 21/54/33 22/55/33 23/56/33 25/57/33 26/58/33 27/59/33 28/60/33 29/61/33 30/62/33 31/63/33 32/64/33 33/65/33
o Cube_Cube.002
v -1.000000 -1.222240 1.000000
v -1.000000 0.777760 1.000000
v -1.000000 -1.222240 -1.000000
v -1.000000 0.777760 -1.000000
v 1.000000 -1.222240 1.000000
v 1.000000 0.777760 1.000000
v 1.000000 -1.222240 -1.000000
v 1.000000 0.777760 -1.000000
vt 0.375000 0.000000
vt 0.625000 0.000000
vt 0.625000 0.250000
vt 0.375000 0.250000
vt 0.625000 0.500000
vt 0.375000 0.500000
vt 0.625000 0.750000
vt 0.375000 0.750000
vt 0.625000 1.000000
vt 0.375000 1.000000
vt 0.125000 0.500000
vt 0.125000 0.750000
vt 0.875000 0.500000
vt 0.875000 0.750000
vn -1.0000 0.0000 0.0000
vn 0.0000 0.0000 -1.0000
vn 1.0000 0.0000 0.0000
vn 0.0000 0.0000 1.0000
vn 0.0000 -1.0000 0.0000
vn 0.0000 1.0000 0.0000
usemtl (null)
s off
f 34/66/34 35/67/34 37/68/34 36/69/34
f 36/69/35 37/68/35 41/70/35 40/71/35
f 40/71/36 41/70/36 39/72/36 38/73/36
f 38/73/37 39/72/37 35/74/37 34/75/37
f 36/76/38 40/71/38 38/73/38 34/77/38
f 41/70/39 37/78/39 35/79/39 39/72/39
o Cylinder.002_Cylinder.003
v 0.000000 -3.200000 -1.000000
v 0.000000 -1.200000 -1.000000
v 0.382683 -3.200000 -0.923880
v 0.382683 -1.200000 -0.923880
v 0.707107 -3.200000 -0.707107
v 0.707107 -1.200000 -0.707107
v 0.923880 -3.200000 -0.382683
v 0.923880 -1.200000 -0.382683
v 1.000000 -3.200000 0.000000
v 1.000000 -1.200000 0.000000
v 0.923880 -3.200000 0.382684
v 0.923880 -1.200000 0.382684
v 0.707107 -3.200000 0.707107
v 0.707107 -1.200000 0.707107
v 0.382683 -3.200000 0.923880
v 0.382683 -1.200000 0.923880
v 0.000000 -3.200000 1.000000
v 0.000000 -1.200000 1.000000
v -0.382683 -3.200000 0.923880
v -0.382683 -1.200000 0.923880
v -0.707107 -3.200000 0.707107
v -0.707107 -1.200000 0.707107
v -0.923880 -3.200000 0.382684
v -0.923880 -1.200000 0.382684
v -1.000000 -3.200000 -0.000000
v -1.000000 -1.200000 -0.000000
v -0.923879 -3.200000 -0.382684
v -0.923879 -1.200000 -0.382684
v -0.707107 -3.200000 -0.707107
v -0.707107 -1.200000 -0.707107
v -0.382683 -3.200000 -0.923880
v -0.382683 -1.200000 -0.923880
vt 1.000000 0.500000
vt 1.000000 1.000000
vt 0.937500 1.000000
vt 0.937500 0.500000
vt 0.875000 1.000000
vt 0.875000 0.500000
vt 0.812500 1.000000
vt 0.812500 0.500000
vt 0.750000 1.000000
vt 0.750000 0.500000
vt 0.687500 1.000000
vt 0.687500 0.500000
vt 0.625000 1.000000
vt 0.625000 0.500000
vt 0.562500 1.000000
vt 0.562500 0.500000
vt 0.500000 1.000000
vt 0.500000 0.500000
vt 0.437500 1.000000
vt 0.437500 0.500000
vt 0.375000 1.000000
vt 0.375000 0.500000
vt 0.312500 1.000000
vt 0.312500 0.500000
vt 0.250000 1.000000
vt 0.250000 0.500000
vt 0.187500 1.000000
vt 0.187500 0.500000
vt 0.125000 1.000000
vt 0.125000 0.500000
vt 0.341844 0.471731
vt 0.250000 0.490000
vt 0.158156 0.471731
vt 0.080294 0.419706
vt 0.028269 0.341844
vt 0.010000 0.250000
vt 0.028269 0.158156
vt 0.080294 0.080294
vt 0.158156 0.028269
vt 0.250000 0.010000
vt 0.341844 0.028269
vt 0.419706 0.080294
vt 0.471731 0.158156
vt 0.490000 0.250000
vt 0.471731 0.341844
vt 0.419706 0.419706
vt 0.062500 1.000000
vt 0.062500 0.500000
vt 0.000000 1.000000
vt 0.000000 0.500000
vt 0.750000 0.490000
vt 0.841844 0.471731
vt 0.919706 0.419706
vt 0.971731 0.341844
vt 0.990000 0.250000
vt 0.971731 0.158156
vt 0.919706 0.080294
vt 0.841844 0.028269
vt 0.750000 0.010000
vt 0.658156 0.028269
vt 0.580294 0.080294
vt 0.528269 0.158156
vt 0.510000 0.250000
vt 0.528269 0.341844
vt 0.580294 0.419706
vt 0.658156 0.471731
vn 0.1951 0.0000 -0.9808
vn 0.5556 0.0000 -0.8315
vn 0.8315 0.0000 -0.5556
vn 0.9808 0.0000 -0.1951
vn 0.9808 0.0000 0.1951
vn 0.8315 0.0000 0.5556
vn 0.5556 0.0000 0.8315
vn 0.1951 0.0000 0.9808
vn -0.1951 0.0000 0.9808
vn -0.5556 0.0000 0.8315
vn -0.8315 0.0000 0.5556
vn -0.9808 0.0000 0.1951
vn -0.9808 0.0000 -0.1951
vn -0.8315 0.0000 -0.5556
vn 0.0000 1.0000 0.0000
vn -0.5556 0.0000 -0.8315
vn -0.1951 0.0000 -0.9808
vn 0.0000 -1.0000 -0.0000
usemtl (null)
s off
f 42/80/40 43/81/40 45/82/40 44/83/40
f 44/83/41 45/82/41 47/84/41 46/85/41
f 46/85/42 47/84/42 49/86/42 48/87/42
f 48/87/43 49/86/43 51/88/43 50/89/43
f 50/89/44 51/88/44 53/90/44 52/91/44
f 52/91/45 53/90/45 55/92/45 54/93/45
f 54/93/46 55/92/46 57/94/46 56/95/46
f 56/95/47 57/94/47 59/96/47 58/97/47
f 58/97/48 59/96/48 61/98/48 60/99/48
f 60/99/49 61/98/49 63/100/49 62/101/49
f 62/101/50 63/100/50 65/102/50 64/103/50
f 64/103/51 65/102/51 67/104/51 66/105/51
f 66/105/52 67/104/52 69/106/52 68/107/52
f 68/107/53 69/106/53 71/108/53 70/109/53
f 45/110/54 43/111/54 73/112/54 71/113/54 69/114/54 67/115/54 65/116/54 63/117/54 61/118/54 59/119/54 57/120/54 55/121/54 53/122/54 51/123/54 49/124/54 47/125/54
f 70/109/55 71/108/55 73/126/55 72/127/55
f 72/127/56 73/126/56 43/128/56 42/129/56
f 42/130/57 44/131/57 46/132/57 48/133/57 50/134/57 52/135/57 54/136/57 56/137/57 58/138/57 60/139/57 62/140/57 64/141/57 66/142/57 68/143/57 70/144/57 72/145/57
